# xmcd
#
# Track frame offsets:
#	150
#	17632
#	28852
#	42697
#	54350
#	65772
#	74537
#	94577
#	123532
#	144710
#	155852
#	172735
#	186902
#	197090
#	215325
#	245420
#	271202
#	294527
#	307052
#
# Disc length: 4291
#
# Revision: 2
# Processed by: cddbd v1.5.1PL0 Copyright (c) Steve Scherf et al.
# Submitted via: CDex 1.50Beta6
# Normalized: r0:DSETVAR1,TDELIM( - ),TSWAP
#
DISCID=2910c113
DTITLE=Various Artist - Jazz-Movie Theater 2
DYEAR=1998
DGENRE=Jazz
TTITLE0=Laura Fygi - I Love You For Sentimental Reasons
TTITLE1=Joe Williams - Singin' In The Rain
TTITLE2=Ella Fitzgerald - Isn't It Romantic?
TTITLE3=Billy Eckstine - Don't Get Around Much Anymore
TTITLE4=Dinah Washington - What A Difference A Day Made
TTITLE5=Ella Fitzgerald - A Tisket, A Tasket
TTITLE6=Clearance Gatemouth Brown - Unchained Melody
TTITLE7=Shirley Horn - Wouldn't It Be Loverly?
TTITLE8=Fred Astaire - Let's Call The Whole Thing Off
TTITLE9=Dinah Washington - But Not For Me
TTITLE10=Mel Torme - Blue Moon
TTITLE11=Dinah Washington - Please Send Me Someone To Love
TTITLE12=Jimmy Smith - The Organ Grinder's Swing
TTITLE13=Anita O'day - Tea For Two
TTITLE14=Clearance Gatemouth Brown - Jambalaya
TTITLE15=Dizzy Gillespie, Sonny Rollins and Sonny Stitt - On The Sunny Side Of The Street
TTITLE16=Chris Botti and Jonathan Brooke - Forgiven
TTITLE17=George Benson - Groovin'
TTITLE18=Billy Eckstine - Laura
EXTD=YEAR: 1998
EXTT0=
EXTT1=
EXTT2=
EXTT3=
EXTT4=
EXTT5=
EXTT6=
EXTT7=
EXTT8=
EXTT9=
EXTT10=
EXTT11=
EXTT12=
EXTT13=
EXTT14=
EXTT15=
EXTT16=
EXTT17=
EXTT18=
PLAYORDER=
